<?xml version="1.0" encoding="UTF-8"?>
<!DOCTYPE svg PUBLIC "-//W3C//DTD SVG 1.1//EN" "http://www.w3.org/Graphics/SVG/1.1/DTD/svg11.dtd">
<svg xmlns="http://www.w3.org/2000/svg" version="1.1" width="2246px" height="499px" style="shape-rendering:geometricPrecision; text-rendering:geometricPrecision; image-rendering:optimizeQuality; fill-rule:evenodd; clip-rule:evenodd" xmlns:xlink="http://www.w3.org/1999/xlink">
<g><path style="opacity:1" fill="#2b252c" d="M 1248.5,-0.5 C 1256.17,-0.5 1263.83,-0.5 1271.5,-0.5C 1311.63,10.3673 1330.13,36.7006 1327,78.5C 1318.8,114.097 1296.47,132.764 1260,134.5C 1223.53,132.764 1201.2,114.097 1193,78.5C 1189.87,36.7006 1208.37,10.3673 1248.5,-0.5 Z"/></g>
<g><path style="opacity:1" fill="#2b252c" d="M 1018.5,498.5 C 1003.17,498.5 987.833,498.5 972.5,498.5C 948.99,495.661 927.323,487.661 907.5,474.5C 905.355,476.732 903.855,479.399 903,482.5C 901.167,484.333 899.333,486.167 897.5,488C 867.5,488.667 837.5,488.667 807.5,488C 806,486.5 804.5,485 803,483.5C 802.333,340.5 802.333,197.5 803,54.5C 804.5,53 806,51.5 807.5,50C 846.167,49.3333 884.833,49.3333 923.5,50C 925,51.5 926.5,53 928,54.5C 928.167,90.8379 928.667,127.171 929.5,163.5C 950.533,154.327 972.533,150.327 995.5,151.5C 1061.65,150.65 1111.82,178.317 1146,234.5C 1164.1,270.411 1170.76,308.411 1166,348.5C 1160.62,402.455 1135.45,444.288 1090.5,474C 1068.2,487.488 1044.2,495.655 1018.5,498.5 Z M 978.5,265.5 C 1015.3,268.462 1035.3,288.295 1038.5,325C 1033.52,365.972 1010.52,384.972 969.5,382C 940.059,374.544 924.392,355.544 922.5,325C 925.287,290.05 943.954,270.217 978.5,265.5 Z"/></g>
<g><path style="opacity:1" fill="#2b252c" d="M -0.5,483.5 C -0.5,347.167 -0.5,210.833 -0.5,74.5C 1.29585,73.2073 2.96252,71.7073 4.5,70C 44.8333,69.3333 85.1667,69.3333 125.5,70C 127,71.5 128.5,73 130,74.5C 130.5,120.832 130.667,167.165 130.5,213.5C 163.5,213.5 196.5,213.5 229.5,213.5C 229.333,167.165 229.5,120.832 230,74.5C 231.5,73 233,71.5 234.5,70C 274.833,69.3333 315.167,69.3333 355.5,70C 357,71.5 358.5,73 360,74.5C 360.667,210.833 360.667,347.167 360,483.5C 358.5,485 357,486.5 355.5,488C 315.167,488.667 274.833,488.667 234.5,488C 233,486.5 231.5,485 230,483.5C 229.5,434.168 229.333,384.834 229.5,335.5C 196.5,335.5 163.5,335.5 130.5,335.5C 130.667,384.834 130.5,434.168 130,483.5C 128.5,485 127,486.5 125.5,488C 85.1667,488.667 44.8333,488.667 4.5,488C 2.96252,486.293 1.29585,484.793 -0.5,483.5 Z"/></g>
<g><path style="opacity:1" fill="#2b252c" d="M 1479.5,69.5 C 1490.17,69.3335 1500.84,69.5002 1511.5,70C 1513,71.5 1514.5,73 1516,74.5C 1516.5,103.165 1516.67,131.831 1516.5,160.5C 1540.84,160.333 1565.17,160.5 1589.5,161C 1591,162.5 1592.5,164 1594,165.5C 1594.67,196.167 1594.67,226.833 1594,257.5C 1592.5,259 1591,260.5 1589.5,262C 1566.17,262.5 1542.84,262.667 1519.5,262.5C 1519.33,290.502 1519.5,318.502 1520,346.5C 1519.64,356.786 1523.47,364.953 1531.5,371C 1534.41,372.286 1537.41,373.286 1540.5,374C 1557.47,375.209 1574.47,375.875 1591.5,376C 1593,377.5 1594.5,379 1596,380.5C 1596.67,414.833 1596.67,449.167 1596,483.5C 1594.5,485 1593,486.5 1591.5,488C 1557.5,488.667 1523.5,488.667 1489.5,488C 1446.63,482.124 1416.8,459.291 1400,419.5C 1397.05,411.052 1395.05,402.385 1394,393.5C 1392.56,349.854 1392.06,306.188 1392.5,262.5C 1375.5,262.667 1358.5,262.5 1341.5,262C 1340,260.5 1338.5,259 1337,257.5C 1336.33,245.5 1336.33,233.5 1337,221.5C 1384.34,170.662 1431.84,119.996 1479.5,69.5 Z"/></g>
<g><path style="opacity:1" fill="#2b252c" d="M 2245.5,380.5 C 2245.5,414.833 2245.5,449.167 2245.5,483.5C 2243.7,484.793 2242.04,486.293 2240.5,488C 2204.14,488.954 2167.8,488.621 2131.5,487C 2094.11,479.727 2067.28,458.893 2051,424.5C 2046.93,414.537 2044.26,404.204 2043,393.5C 2041.56,349.854 2041.06,306.188 2041.5,262.5C 2024.5,262.667 2007.5,262.5 1990.5,262C 1989,260.5 1987.5,259 1986,257.5C 1985.33,245.5 1985.33,233.5 1986,221.5C 2033.13,170.698 2080.63,120.198 2128.5,70C 2139.17,69.3333 2149.83,69.3333 2160.5,70C 2162,71.5 2163.5,73 2165,74.5C 2165.5,103.165 2165.67,131.831 2165.5,160.5C 2189.84,160.333 2214.17,160.5 2238.5,161C 2240,162.5 2241.5,164 2243,165.5C 2243.67,196.167 2243.67,226.833 2243,257.5C 2241.5,259 2240,260.5 2238.5,262C 2215.17,262.5 2191.84,262.667 2168.5,262.5C 2168.33,290.502 2168.5,318.502 2169,346.5C 2168.64,356.786 2172.47,364.953 2180.5,371C 2183.41,372.286 2186.41,373.286 2189.5,374C 2206.47,375.209 2223.47,375.875 2240.5,376C 2242.04,377.707 2243.7,379.207 2245.5,380.5 Z"/></g>
<g><path style="opacity:1" fill="#2b252c" d="M 583.5,498.5 C 568.5,498.5 553.5,498.5 538.5,498.5C 475.228,490.409 430.061,457.409 403,399.5C 388.512,359.74 385.512,319.074 394,277.5C 404.1,235.437 426.933,202.27 462.5,178C 499.705,155.424 540.039,146.757 583.5,152C 607.793,154.375 630.127,162.208 650.5,175.5C 652.699,169.601 656.033,164.435 660.5,160C 690.833,159.333 721.167,159.333 751.5,160C 753,161.5 754.5,163 756,164.5C 756.667,270.833 756.667,377.167 756,483.5C 754.5,485 753,486.5 751.5,488C 720.167,488.667 688.833,488.667 657.5,488C 653.566,484.207 650.733,479.707 649,474.5C 628.946,487.571 607.113,495.571 583.5,498.5 Z M 573.5,265.5 C 610.152,268.321 630.485,287.988 634.5,324.5C 631.124,360.542 611.458,380.209 575.5,383.5C 539.827,379.659 520.493,359.826 517.5,324C 520.775,289.561 539.442,270.061 573.5,265.5 Z"/></g>
<g><path style="opacity:1" fill="#2b252c" d="M 1797.5,498.5 C 1782.5,498.5 1767.5,498.5 1752.5,498.5C 1689.23,490.409 1644.06,457.409 1617,399.5C 1602.51,359.74 1599.51,319.074 1608,277.5C 1618.1,235.437 1640.93,202.27 1676.5,178C 1713.71,155.424 1754.04,146.757 1797.5,152C 1821.79,154.375 1844.13,162.208 1864.5,175.5C 1866.7,169.601 1870.03,164.435 1874.5,160C 1904.83,159.333 1935.17,159.333 1965.5,160C 1967,161.5 1968.5,163 1970,164.5C 1970.67,270.833 1970.67,377.167 1970,483.5C 1968.5,485 1967,486.5 1965.5,488C 1934.17,488.667 1902.83,488.667 1871.5,488C 1867.57,484.207 1864.73,479.707 1863,474.5C 1842.95,487.571 1821.11,495.571 1797.5,498.5 Z M 1787.5,265.5 C 1824.15,268.321 1844.48,287.988 1848.5,324.5C 1845.12,360.542 1825.46,380.209 1789.5,383.5C 1753.83,379.659 1734.49,359.826 1731.5,324C 1734.78,289.561 1753.44,270.061 1787.5,265.5 Z"/></g>
<g><path style="opacity:1" fill="#2b252c" d="M 1199.5,160.5 C 1238.5,160.333 1277.5,160.5 1316.5,161C 1318,162.5 1319.5,164 1321,165.5C 1321.67,271.5 1321.67,377.5 1321,483.5C 1319.5,485 1318,486.5 1316.5,488C 1277.5,488.667 1238.5,488.667 1199.5,488C 1198,486.5 1196.5,485 1195,483.5C 1194.33,377.5 1194.33,271.5 1195,165.5C 1196.71,163.963 1198.21,162.296 1199.5,160.5 Z"/></g>
</svg>
